<svg width="521" height="71" viewBox="0 0 521 71" fill="none" xmlns="http://www.w3.org/2000/svg">
<path d="M50.75 0.499995H88.1C88.1 4.28 88.1 8.06 88.1 11.84C88.1 15.62 88.1 19.4 88.1 23.18C88.1 26.96 88.1 30.77 88.1 34.61C88.1 40.13 88.1 45.68 88.1 51.26C88.1 56.84 88.1 62.42 88.1 68H50.75C50.75 64.34 50.75 60.68 50.75 57.02C50.75 53.36 50.75 49.7 50.75 46.04C50.75 45.98 50.72 45.95 50.66 45.95C50.66 45.89 50.63 45.86 50.57 45.86H38.24C38.18 45.86 38.15 45.89 38.15 45.95C38.15 45.95 38.15 45.98 38.15 46.04C38.15 49.7 38.15 53.36 38.15 57.02C38.15 60.68 38.15 64.34 38.15 68H0.8C0.8 64.4 0.8 60.8 0.8 57.2C0.8 53.6 0.8 50 0.8 46.4C0.8 42.8 0.8 39.2 0.8 35.6C0.8 32 0.8 28.4 0.8 24.8C0.8 21.2 0.8 17.6 0.8 14C0.8 11.72 0.8 9.47 0.8 7.25C0.8 4.97 0.8 2.71999 0.8 0.499995H38.15C38.15 3.38 38.15 6.29 38.15 9.22999C38.15 12.17 38.15 15.11 38.15 18.05C38.15 20.93 38.15 23.84 38.15 26.78C38.15 26.84 38.15 26.9 38.15 26.96C38.15 26.96 38.18 26.96 38.24 26.96H50.57C50.63 26.96 50.66 26.96 50.66 26.96C50.72 26.9 50.75 26.84 50.75 26.78C50.75 22.4 50.75 18.02 50.75 13.64C50.75 9.26 50.75 4.88 50.75 0.499995ZM131.279 70.7C127.559 70.7 123.959 70.43 120.479 69.89C116.999 69.35 113.759 68.54 110.759 67.46C107.759 66.32 105.029 64.91 102.569 63.23C100.109 61.55 98.0089 59.6 96.2689 57.38C94.5289 55.1 93.1789 52.55 92.2189 49.73C91.2589 46.85 90.7789 43.67 90.7789 40.19C90.7789 36.11 91.4389 32.45 92.7589 29.21C94.1389 25.91 96.0589 23.03 98.5189 20.57C101.039 18.11 103.979 16.07 107.339 14.45C110.699 12.77 114.389 11.54 118.409 10.76C122.489 9.92 126.779 9.5 131.279 9.5C136.919 9.5 142.169 10.16 147.029 11.48C151.949 12.74 156.239 14.66 159.899 17.24C163.619 19.76 166.529 22.94 168.629 26.78C170.729 30.62 171.779 35.09 171.779 40.19C171.779 45.29 170.729 49.76 168.629 53.6C166.529 57.38 163.619 60.56 159.899 63.14C156.239 65.66 151.949 67.55 147.029 68.81C142.169 70.07 136.919 70.7 131.279 70.7ZM131.369 46.85C135.089 46.85 137.729 46.13 139.289 44.69C140.849 43.25 141.629 41.69 141.629 40.01C141.629 39.23 141.449 38.45 141.089 37.67C140.729 36.89 140.159 36.17 139.379 35.51C138.599 34.85 137.549 34.34 136.229 33.98C134.909 33.56 133.289 33.35 131.369 33.35C129.449 33.35 127.799 33.56 126.419 33.98C125.099 34.34 124.019 34.85 123.179 35.51C122.399 36.17 121.829 36.89 121.469 37.67C121.109 38.45 120.929 39.26 120.929 40.1C120.929 40.94 121.109 41.78 121.469 42.62C121.829 43.4 122.429 44.12 123.269 44.78C124.109 45.38 125.189 45.89 126.509 46.31C127.829 46.67 129.449 46.85 131.369 46.85ZM174.472 68C174.472 63.74 174.472 59.48 174.472 55.22C174.472 50.96 174.472 46.7 174.472 42.44C174.472 38.12 174.472 33.83 174.472 29.57C174.472 26.63 174.472 23.72 174.472 20.84C174.472 17.96 174.472 15.08 174.472 12.2H205.612C205.612 16.16 205.612 20.12 205.612 24.08C205.612 27.98 205.612 31.91 205.612 35.87C205.612 41.21 205.612 46.58 205.612 51.98C205.612 57.32 205.612 62.66 205.612 68H174.472ZM215.692 68C215.692 63.32 215.692 58.58 215.692 53.78C215.692 48.98 215.692 44.24 215.692 39.56C215.692 37.82 215.242 36.59 214.342 35.87C213.502 35.15 212.482 34.76 211.282 34.7C210.082 34.64 208.972 34.79 207.952 35.15C206.992 35.51 206.392 35.87 206.152 36.23L213.352 13.1C217.732 11.18 222.472 10.22 227.572 10.22C230.092 10.22 232.492 10.52 234.772 11.12C237.052 11.72 239.092 12.65 240.892 13.91C242.752 15.17 244.192 16.85 245.212 18.95C246.292 20.99 246.832 23.45 246.832 26.33C246.832 28.07 246.832 29.84 246.832 31.64C246.832 33.44 246.832 35.21 246.832 36.95C246.832 37.79 246.832 38.66 246.832 39.56C246.832 40.4 246.832 41.24 246.832 42.08C246.832 42.92 246.832 43.79 246.832 44.69C246.832 48.53 246.832 52.4 246.832 56.3C246.832 60.2 246.832 64.1 246.832 68H215.692ZM256.372 68C256.372 63.32 256.372 58.58 256.372 53.78C256.372 48.98 256.372 44.24 256.372 39.56C256.372 37.82 255.922 36.59 255.022 35.87C254.182 35.15 253.162 34.76 251.962 34.7C250.762 34.64 249.652 34.79 248.632 35.15C247.672 35.51 247.072 35.87 246.832 36.23L253.132 13.1C255.292 12.14 257.602 11.42 260.062 10.94C262.582 10.46 265.072 10.22 267.532 10.22C271.012 10.22 274.252 10.76 277.252 11.84C280.312 12.92 282.772 14.63 284.632 16.97C286.552 19.31 287.512 22.43 287.512 26.33V68H256.372ZM291.015 68C291.015 63.74 291.015 59.48 291.015 55.22C291.015 50.96 291.015 46.7 291.015 42.44C291.015 38.12 291.015 33.83 291.015 29.57C291.015 26.63 291.015 23.72 291.015 20.84C291.015 17.96 291.015 15.08 291.015 12.2H322.155C322.155 16.16 322.155 20.12 322.155 24.08C322.155 27.98 322.155 31.91 322.155 35.87C322.155 41.21 322.155 46.58 322.155 51.98C322.155 57.32 322.155 62.66 322.155 68H291.015ZM332.235 68C332.235 63.32 332.235 58.58 332.235 53.78C332.235 48.98 332.235 44.24 332.235 39.56C332.235 37.82 331.785 36.59 330.885 35.87C330.045 35.15 329.025 34.76 327.825 34.7C326.625 34.64 325.515 34.79 324.495 35.15C323.535 35.51 322.935 35.87 322.695 36.23L329.895 13.1C334.275 11.18 339.015 10.22 344.115 10.22C346.635 10.22 349.035 10.52 351.315 11.12C353.595 11.72 355.635 12.65 357.435 13.91C359.295 15.17 360.735 16.85 361.755 18.95C362.835 20.99 363.375 23.45 363.375 26.33C363.375 28.07 363.375 29.84 363.375 31.64C363.375 33.44 363.375 35.21 363.375 36.95C363.375 37.79 363.375 38.66 363.375 39.56C363.375 40.4 363.375 41.24 363.375 42.08C363.375 42.92 363.375 43.79 363.375 44.69C363.375 48.53 363.375 52.4 363.375 56.3C363.375 60.2 363.375 64.1 363.375 68H332.235ZM372.915 68C372.915 63.32 372.915 58.58 372.915 53.78C372.915 48.98 372.915 44.24 372.915 39.56C372.915 37.82 372.465 36.59 371.565 35.87C370.725 35.15 369.705 34.76 368.505 34.7C367.305 34.64 366.195 34.79 365.175 35.15C364.215 35.51 363.615 35.87 363.375 36.23L369.675 13.1C371.835 12.14 374.145 11.42 376.605 10.94C379.125 10.46 381.615 10.22 384.075 10.22C387.555 10.22 390.795 10.76 393.795 11.84C396.855 12.92 399.315 14.63 401.175 16.97C403.095 19.31 404.055 22.43 404.055 26.33V68H372.915ZM407.558 68C407.558 65.24 407.558 62.51 407.558 59.81C407.558 57.05 407.558 54.32 407.558 51.62C407.558 48.86 407.558 46.13 407.558 43.43C407.558 42.29 407.558 41.15 407.558 40.01C407.558 38.87 407.558 37.73 407.558 36.59C411.038 36.59 414.488 36.59 417.908 36.59C421.388 36.59 424.868 36.59 428.348 36.59C431.828 36.59 435.278 36.59 438.698 36.59C438.698 40.07 438.698 43.55 438.698 47.03C438.698 50.51 438.698 54.02 438.698 57.56C438.698 61.04 438.698 64.52 438.698 68H407.558ZM407.558 36.59C407.558 32.51 407.558 28.43 407.558 24.35C407.558 20.27 407.558 16.22 407.558 12.2H438.698C438.698 14.18 438.698 16.16 438.698 18.14C438.698 20.12 438.698 22.1 438.698 24.08C438.698 26.06 438.698 28.04 438.698 30.02C438.698 30.02 438.668 30.05 438.608 30.11C433.448 31.19 428.258 32.27 423.038 33.35C417.878 34.43 412.718 35.51 407.558 36.59ZM482.055 47.66C485.235 47.66 487.695 47.09 489.435 45.95C491.175 44.81 492.075 43.25 492.135 41.27L519.945 50.36C518.865 54.14 516.555 57.59 513.015 60.71C509.535 63.77 505.125 66.2 499.785 68C494.445 69.8 488.475 70.7 481.875 70.7C476.235 70.7 470.955 70.07 466.035 68.81C461.175 67.55 456.885 65.66 453.165 63.14C449.505 60.56 446.625 57.35 444.525 53.51C442.425 49.67 441.375 45.2 441.375 40.1C441.375 35 442.425 30.53 444.525 26.69C446.625 22.85 449.505 19.67 453.165 17.15C456.885 14.57 461.205 12.65 466.125 11.39C471.045 10.13 476.295 9.5 481.875 9.5C487.575 9.5 492.795 10.13 497.535 11.39C502.335 12.65 506.445 14.6 509.865 17.24C513.345 19.82 516.015 23.12 517.875 27.14C519.795 31.1 520.755 35.81 520.755 41.27H471.705C471.705 41.27 471.675 41.27 471.615 41.27C471.615 41.27 471.615 41.3 471.615 41.36C471.615 42.26 471.855 43.1 472.335 43.88C472.815 44.66 473.475 45.35 474.315 45.95C475.215 46.49 476.295 46.91 477.555 47.21C478.875 47.51 480.375 47.66 482.055 47.66ZM481.875 32.27C478.935 32.27 476.505 32.81 474.585 33.89C472.665 34.91 471.705 36.38 471.705 38.3C471.705 38.36 471.705 38.42 471.705 38.48C471.765 38.48 471.795 38.48 471.795 38.48H491.865C491.925 38.48 491.955 38.48 491.955 38.48C491.955 38.42 491.955 38.36 491.955 38.3C491.955 37.34 491.685 36.5 491.145 35.78C490.665 35 489.975 34.37 489.075 33.89C488.175 33.35 487.095 32.96 485.835 32.72C484.635 32.42 483.315 32.27 481.875 32.27Z" fill="white"/>
</svg>
